<svg width="112" height="112" viewBox="0 0 112 112" fill="none" xmlns="http://www.w3.org/2000/svg">
<circle cx="55.819" cy="55.819" r="55.819" fill="#8E623A"/>
<path fill-rule="evenodd" clip-rule="evenodd" d="M74.7826 32.1919C73.9522 32.1919 73.1418 32.437 72.4528 32.8986L61.2344 40.3738C58.4202 42.252 55.846 44.4672 53.5693 46.9701C58.2441 49.1676 62.0049 52.9284 64.2024 57.6032C66.7055 55.3258 68.9207 52.7509 70.7987 49.9359L78.2761 38.7197C78.6972 38.0873 78.9388 37.3525 78.9752 36.5936C79.0117 35.8347 78.8416 35.0801 78.4831 34.4102C78.1245 33.7404 77.5911 33.1803 76.9394 32.7896C76.2877 32.399 75.5423 32.1924 74.7826 32.1919ZM56.4534 63.1638C57.9004 62.3587 59.2986 61.4686 60.6404 60.4983C59.7486 58.2441 58.4041 56.1967 56.69 54.4825C54.9758 52.7684 52.9284 51.4239 50.6742 50.5321C49.7039 51.8732 48.8139 53.2706 48.0087 54.7169L47.3948 55.8211C49.2855 56.365 51.007 57.3803 52.3979 58.7716C53.7888 60.1629 54.8036 61.8847 55.347 63.7755L56.4534 63.1638ZM44.1994 58.6919C42.003 58.6919 39.8967 59.5644 38.3436 61.1174C36.7906 62.6705 35.9181 64.7768 35.9181 66.9731C35.9182 67.427 35.8251 67.8761 35.6444 68.2924C35.4638 68.7088 35.1995 69.0836 34.868 69.3936C34.5365 69.7036 34.1448 69.9421 33.7172 70.0944C33.2897 70.2468 32.8354 70.3096 32.3826 70.279C32.0831 70.2589 31.7839 70.3205 31.5168 70.4572C31.2496 70.594 31.0247 70.8007 30.8659 71.0554C30.7072 71.3101 30.6206 71.6031 30.6155 71.9032C30.6103 72.2032 30.6868 72.499 30.8367 72.759C32.1107 74.9721 34.0797 76.7027 36.438 77.6821C38.7964 78.6615 41.4121 78.8349 43.879 78.1754C46.346 77.5159 48.5262 76.0603 50.0812 74.0347C51.6361 72.0091 52.4788 69.5268 52.4784 66.9731C52.4784 65.8856 52.2642 64.8088 51.848 63.804C51.4319 62.7993 50.8219 61.8864 50.0529 61.1174C49.2839 60.3484 48.371 59.7384 47.3662 59.3223C46.3615 58.9061 45.2869 58.6919 44.1994 58.6919Z" fill="#FFE8D3"/>
</svg>
