<svg width="23" height="23" viewBox="0 0 23 23" fill="none" xmlns="http://www.w3.org/2000/svg">
<path d="M11.8088 22.9861C17.8321 22.9861 22.8192 17.9882 22.8192 11.9757C22.8192 5.95234 17.8213 0.965271 11.798 0.965271C5.78541 0.965271 0.79834 5.95234 0.79834 11.9757C0.79834 17.9882 5.79621 22.9861 11.8088 22.9861ZM7.99829 16.6821C7.51254 16.6821 7.11314 16.2719 7.11314 15.7754C7.11314 15.5379 7.21029 15.322 7.37221 15.1493L10.535 11.9865L7.37221 8.82369C7.21029 8.65097 7.11314 8.43508 7.11314 8.1976C7.11314 7.70106 7.51254 7.31245 7.99829 7.31245C8.25736 7.31245 8.46245 7.39881 8.62437 7.57152L11.798 10.7343L15.0039 7.56073C15.1874 7.37722 15.3817 7.29086 15.6192 7.29086C16.105 7.29086 16.5044 7.69026 16.5044 8.17601C16.5044 8.42429 16.4288 8.61859 16.2453 8.81289L13.0717 11.9865L16.2345 15.1385C16.4072 15.322 16.4936 15.5271 16.4936 15.7754C16.4936 16.2719 16.0942 16.6821 15.5976 16.6821C15.3494 16.6821 15.1335 16.5742 14.9608 16.4122L11.798 13.2494L8.65675 16.4122C8.48404 16.585 8.25736 16.6821 7.99829 16.6821Z" fill="#3C3C43" fill-opacity="0.6"/>
</svg>
