<svg width="26" height="26" viewBox="0 0 26 26" fill="none" xmlns="http://www.w3.org/2000/svg">
<path d="M13.9098 1.72231C13.9098 1.4442 14.0203 1.17749 14.2169 0.980833C14.4136 0.784181 14.6803 0.673702 14.9584 0.673702C17.7386 0.676755 20.404 1.78252 22.3698 3.74839C24.3357 5.71425 25.4415 8.37966 25.4445 11.1598C25.4445 11.4379 25.334 11.7046 25.1374 11.9013C24.9407 12.0979 24.674 12.2084 24.3959 12.2084C24.1178 12.2084 23.8511 12.0979 23.6544 11.9013C23.4578 11.7046 23.3473 11.4379 23.3473 11.1598C23.3448 8.93571 22.4602 6.80341 20.8875 5.23073C19.3148 3.65805 17.1825 2.77342 14.9584 2.77092C14.6803 2.77092 14.4136 2.66045 14.2169 2.46379C14.0203 2.26714 13.9098 2.00042 13.9098 1.72231V1.72231ZM14.9584 6.96537C16.0708 6.96537 17.1377 7.40728 17.9243 8.19389C18.7109 8.9805 19.1528 10.0474 19.1528 11.1598C19.1528 11.4379 19.2633 11.7046 19.46 11.9013C19.6566 12.0979 19.9233 12.2084 20.2015 12.2084C20.4796 12.2084 20.7463 12.0979 20.9429 11.9013C21.1396 11.7046 21.2501 11.4379 21.2501 11.1598C21.2484 9.49167 20.585 7.89233 19.4054 6.71277C18.2259 5.53322 16.6265 4.86981 14.9584 4.86815C14.6803 4.86815 14.4136 4.97863 14.2169 5.17528C14.0203 5.37193 13.9098 5.63865 13.9098 5.91676C13.9098 6.19487 14.0203 6.46159 14.2169 6.65824C14.4136 6.85489 14.6803 6.96537 14.9584 6.96537V6.96537ZM24.4934 18.2264C25.1011 18.8358 25.4423 19.6612 25.4423 20.5218C25.4423 21.3824 25.1011 22.2079 24.4934 22.8172L23.5392 23.9172C14.9511 32.1394 -5.94773 11.2458 2.14754 2.63041L3.35344 1.5818C3.96349 0.991093 4.78158 0.664316 5.63071 0.672166C6.47985 0.680015 7.29176 1.02186 7.89078 1.62374C7.92329 1.65625 9.86636 4.18026 9.86636 4.18026C10.4429 4.78596 10.7639 5.59057 10.7625 6.42681C10.7611 7.26305 10.4376 8.06659 9.85902 8.67041L8.64473 10.1972C9.31673 11.83 10.3047 13.3139 11.552 14.5637C12.7993 15.8135 14.2812 16.8045 15.9126 17.4798L17.4489 16.2582C18.0528 15.6801 18.8562 15.3569 19.6921 15.3557C20.5281 15.3545 21.3324 15.6755 21.938 16.2519C21.938 16.2519 24.4609 18.1939 24.4934 18.2264ZM23.0505 19.7511C23.0505 19.7511 20.5412 17.8206 20.5087 17.7881C20.2927 17.5739 20.0008 17.4537 19.6966 17.4537C19.3923 17.4537 19.1004 17.5739 18.8844 17.7881C18.8561 17.8174 16.741 19.5026 16.741 19.5026C16.5985 19.616 16.4289 19.6904 16.2489 19.7183C16.0689 19.7463 15.8847 19.7268 15.7145 19.662C13.6009 18.875 11.6812 17.6431 10.0853 16.0496C8.48946 14.456 7.25469 12.5381 6.46467 10.4258C6.39462 10.2532 6.37178 10.0652 6.39851 9.88086C6.42523 9.69657 6.50055 9.52272 6.61672 9.37718C6.61672 9.37718 8.30183 7.26108 8.33015 7.23381C8.54434 7.01778 8.66453 6.72588 8.66453 6.42166C8.66453 6.11745 8.54434 5.82554 8.33015 5.60951C8.29764 5.57806 6.36715 3.06663 6.36715 3.06663C6.14788 2.87003 5.86172 2.76473 5.56732 2.77234C5.27292 2.77994 4.99257 2.89987 4.78375 3.10753L3.57785 4.15614C-2.33841 11.2699 15.7721 28.3759 22.0061 22.4848L22.9614 21.3838C23.1853 21.1764 23.3197 20.8901 23.3363 20.5855C23.353 20.2808 23.2505 19.9816 23.0505 19.7511V19.7511Z" fill="white"/>
</svg>
