<svg width="21" height="21" viewBox="0 0 21 21" fill="none" xmlns="http://www.w3.org/2000/svg">
<path d="M8.53232 16.2875C10.2293 16.2852 11.8831 15.7523 13.2622 14.7634L18.2774 19.779C18.3901 19.891 18.5238 19.9795 18.6709 20.0394C18.818 20.0993 18.9755 20.1294 19.1343 20.128C19.8223 20.128 20.3194 19.5989 20.3194 18.9217C20.3194 18.6044 20.2137 18.3082 19.9808 18.0757L14.9972 13.0812C16.0445 11.7057 16.6689 10.0023 16.6689 8.15046C16.6689 3.67473 13.008 0.0138855 8.53232 0.0138855C4.04622 0.0138855 0.395752 3.67473 0.395752 8.15046C0.395752 12.6262 4.04622 16.2875 8.53232 16.2875ZM8.53232 14.5309C5.02994 14.5309 2.15191 11.6425 2.15191 8.15046C2.15191 4.65891 5.02994 1.77005 8.53232 1.77005C12.0239 1.77005 14.9127 4.65891 14.9127 8.15046C14.9127 11.6425 12.0239 14.5309 8.53232 14.5309Z" fill="#3C3C43" fill-opacity="0.6"/>
</svg>
