<svg width="112" height="112" viewBox="0 0 112 112" fill="none" xmlns="http://www.w3.org/2000/svg">
<circle cx="55.819" cy="55.819" r="55.819" fill="#8E623A"/>
<g clip-path="url(#clip0_152_56)">
<path d="M41.5885 54.3561L54.4682 41.4783L50.2458 37.2559L44.3428 43.1588C44.2724 43.2294 44.1888 43.2853 44.0967 43.3235C44.0047 43.3617 43.906 43.3813 43.8064 43.3813C43.7067 43.3813 43.6081 43.3617 43.516 43.3235C43.424 43.2853 43.3404 43.2294 43.27 43.1588L42.1971 42.086C41.9004 41.7893 41.9004 41.3089 42.1971 41.0132L48.1001 35.1102L44.8806 31.8898C43.6949 30.704 41.7732 30.704 40.5874 31.8898L32.0019 40.4753C30.8171 41.6611 30.8161 43.5828 32.0019 44.7686L41.5885 54.3561ZM78.7662 43.178C80.5616 41.3826 80.5607 38.4723 78.7662 36.6769L74.4357 32.3463C72.6403 30.5509 69.729 30.5509 67.9327 32.3463L63.5284 36.7496L74.362 47.5832L78.7662 43.178ZM61.3626 38.9163L32.9388 67.3363L31.1434 77.6187C30.9013 79.0054 32.1091 80.2132 33.4968 79.9691L43.7801 78.1661L72.1962 49.7489L61.3626 38.9163ZM79.2237 66.2329L76.0043 63.0134L70.1013 68.9164C69.8046 69.213 69.3242 69.213 69.0285 68.9164L67.9556 67.8435C67.6599 67.5469 67.6599 67.0664 67.9556 66.7707L73.8586 60.8677L69.6343 56.6434L56.7545 69.5212L66.3449 79.1107C67.5307 80.2964 69.4524 80.2964 70.6382 79.1107L79.2237 70.5261C80.4095 69.3403 80.4095 67.4186 79.2237 66.2329Z" fill="#FFE8D3"/>
</g>
<defs>
<clipPath id="clip0_152_56">
<rect width="49" height="49" fill="white" transform="translate(31.1123 31)"/>
</clipPath>
</defs>
</svg>
